# 3ds Max Wavefront OBJ Exporter v0.97b - (c)2007 guruware
# File Created: 10.10.2009 23:03:47

mtllib shield.mtl

#
# object Plane02
#

v  -14.1390 -211.8846 9.3360
v  0.0000 -218.9414 9.3360
v  14.1390 -211.8846 9.3360
v  43.2866 -189.9103 9.3360
v  -43.2866 -189.9103 9.3360
v  75.8020 -160.4049 9.3360
v  -75.8020 -160.4049 9.3360
v  109.9596 -121.6144 9.3360
v  -109.9596 -121.6144 9.3360
v  129.4687 -91.1456 9.3360
v  -129.4687 -91.1456 9.3360
v  148.9988 -53.2478 9.3360
v  -148.9988 -53.2478 9.3360
v  162.3088 -16.8845 9.3360
v  -162.3088 -16.8845 9.3360
v  169.9699 29.0226 9.3360
v  -169.9699 29.0226 9.3360
v  172.0195 110.4476 9.3360
v  -172.0196 110.4476 9.3360
v  -168.2716 168.1362 9.3360
v  168.2716 168.1362 9.3360
v  145.2777 175.1516 9.3360
v  120.1576 182.0920 9.3360
v  82.6944 192.9034 9.3360
v  54.7530 202.1662 9.3360
v  28.0989 213.4778 9.3360
v  0.0000 224.6808 9.3360
v  -28.0989 213.4778 9.3360
v  -54.7530 202.1662 9.3360
v  -82.6944 192.9034 9.3360
v  -120.1576 182.0920 9.3360
v  -145.2778 175.1516 9.3360
v  -187.0318 110.7457 25.1918
v  -182.5677 179.4571 25.1918
v  -182.5677 179.4571 -0.9008
v  -187.0318 110.7457 -0.9008
v  -149.4645 189.5568 25.1918
v  -149.4645 189.5568 -0.9008
v  -124.2346 196.5276 25.1918
v  -124.2346 196.5276 -0.9008
v  -87.1356 207.2339 25.1918
v  -87.1356 207.2339 -0.9008
v  -60.0517 216.2123 25.1918
v  -60.0517 216.2123 -0.9008
v  -33.8072 227.3502 25.1918
v  -33.8072 227.3502 -0.9008
v  -184.9387 27.5923 25.1918
v  -184.9387 27.5923 -0.9008
v  -176.8745 -20.7299 25.1918
v  -176.8745 -20.7299 -0.9008
v  -162.7623 -59.2849 25.1918
v  -162.7623 -59.2849 -0.9008
v  -142.4802 -98.6419 25.1918
v  -142.4802 -98.6419 -0.9008
v  -121.9742 -130.6676 25.1918
v  -121.9742 -130.6676 -0.9008
v  -86.5042 -170.9485 25.1918
v  -86.5042 -170.9485 -0.9008
v  -52.8613 -201.4771 25.1918
v  -52.8613 -201.4771 -0.9008
v  -22.0694 -224.6909 25.1918
v  -22.0694 -224.6909 -0.9008
v  0.0000 -235.7059 25.1918
v  0.0000 -235.7059 -0.9008
v  0.0000 240.8290 25.1918
v  0.0000 240.8290 -0.9008
v  149.4645 189.5568 25.1918
v  182.5677 179.4571 25.1918
v  182.5677 179.4571 -0.9008
v  149.4645 189.5568 -0.9008
v  187.0318 110.7457 25.1918
v  187.0318 110.7457 -0.9008
v  33.8072 227.3502 25.1918
v  33.8072 227.3502 -0.9008
v  60.0517 216.2123 25.1918
v  60.0517 216.2123 -0.9008
v  87.1356 207.2339 25.1918
v  87.1356 207.2339 -0.9008
v  124.2346 196.5276 25.1918
v  124.2346 196.5276 -0.9008
v  184.9387 27.5923 25.1918
v  184.9387 27.5923 -0.9008
v  176.8745 -20.7299 25.1918
v  176.8745 -20.7299 -0.9008
v  162.7623 -59.2849 25.1918
v  162.7623 -59.2849 -0.9008
v  142.4802 -98.6419 25.1918
v  142.4802 -98.6419 -0.9008
v  121.9742 -130.6676 25.1918
v  121.9742 -130.6676 -0.9008
v  86.5042 -170.9485 25.1918
v  86.5042 -170.9485 -0.9008
v  52.8613 -201.4771 25.1918
v  52.8613 -201.4771 -0.9008
v  22.0694 -224.6909 25.1918
v  22.0694 -224.6909 -0.9008
v  -145.2778 175.1516 25.1918
v  -120.1576 182.0920 25.1918
v  -82.6944 192.9034 25.1918
v  -54.7530 202.1662 25.1918
v  -28.0989 213.4778 25.1918
v  0.0000 224.6808 25.1918
v  28.0989 213.4778 25.1918
v  54.7530 202.1662 25.1918
v  82.6944 192.9034 25.1918
v  120.1576 182.0920 25.1918
v  145.2777 175.1516 25.1918
v  168.2716 168.1362 25.1918
v  172.0195 110.4476 25.1918
v  169.9699 29.0226 25.1918
v  162.3088 -16.8845 25.1918
v  148.9988 -53.2478 25.1918
v  129.4687 -91.1456 25.1918
v  109.9596 -121.6144 25.1918
v  75.8020 -160.4048 25.1918
v  43.2866 -189.9103 25.1918
v  14.1390 -211.8846 25.1918
v  0.0000 -218.9414 25.1918
v  -14.1390 -211.8846 25.1918
v  -43.2866 -189.9103 25.1918
v  -75.8020 -160.4048 25.1918
v  -109.9596 -121.6144 25.1918
v  -129.4687 -91.1456 25.1918
v  -148.9988 -53.2478 25.1918
v  -162.3088 -16.8845 25.1918
v  -169.9699 29.0226 25.1918
v  -172.0195 110.4476 25.1918
v  -168.2716 168.1362 25.1918
v  -6.6370 -60.0212 19.0035
v  -0.0000 -63.3337 19.0035
v  6.6370 -60.0212 19.0035
v  20.3192 -49.7062 19.0035
v  -20.3192 -49.7062 19.0035
v  35.5823 -35.8560 19.0035
v  -35.5823 -35.8560 19.0035
v  51.6163 -17.6473 19.0035
v  -51.6163 -17.6473 19.0035
v  60.7741 -3.3449 19.0035
v  -60.7741 -3.3449 19.0035
v  69.9418 14.4448 19.0035
v  -69.9418 14.4448 19.0035
v  76.1897 31.5142 19.0035
v  -76.1897 31.5142 19.0035
v  79.7858 53.0635 19.0035
v  -79.7859 53.0635 19.0035
v  80.7480 91.2853 19.0035
v  -80.7480 91.2853 19.0035
v  -78.9887 118.3650 19.0035
v  78.9887 118.3651 19.0035
v  -78.9887 118.3650 7.0351
v  -80.7480 91.2853 7.0351
v  -79.7859 53.0635 7.0351
v  -76.1897 31.5142 7.0351
v  -69.9418 14.4448 7.0351
v  -60.7741 -3.3449 7.0351
v  -51.6163 -17.6473 7.0351
v  -35.5823 -35.8560 7.0351
v  -20.3192 -49.7062 7.0351
v  -6.6370 -60.0212 7.0351
v  -0.0000 -63.3337 7.0351
v  6.6370 -60.0212 7.0351
v  20.3192 -49.7062 7.0351
v  35.5823 -35.8560 7.0351
v  51.6163 -17.6473 7.0351
v  60.7741 -3.3449 7.0351
v  69.9418 14.4448 7.0351
v  76.1897 31.5142 7.0351
v  79.7858 53.0635 7.0351
v  80.7480 91.2853 7.0351
v  78.9887 118.3651 7.0351
# 170 vertices

vn 0.0000 -0.0000 1.0000
vn 0.0000 0.0000 1.0000
vn -0.0000 -0.0000 1.0000
vn -0.9998 0.0199 -0.0000
vn -0.9979 0.0648 0.0000
vn -0.2918 0.9565 -0.0000
vn -0.2791 0.9603 -0.0000
vn -0.2718 0.9624 -0.0000
vn -0.2960 0.9552 0.0000
vn -0.3530 0.9356 0.0000
vn -0.3805 0.9248 0.0000
vn -0.9955 -0.0951 -0.0000
vn -0.9669 -0.2553 0.0000
vn -0.9158 -0.4017 -0.0000
vn -0.8665 -0.4992 -0.0000
vn -0.7986 -0.6018 -0.0000
vn -0.7124 -0.7018 -0.0000
vn -0.6377 -0.7703 -0.0000
vn -0.5265 -0.8502 -0.0000
vn -0.4466 -0.8947 -0.0000
vn -0.3703 0.9289 -0.0000
vn 0.2791 0.9603 -0.0000
vn 0.2918 0.9565 -0.0000
vn 0.9979 0.0648 -0.0000
vn 0.9998 0.0199 0.0000
vn 0.9998 0.0199 -0.0000
vn 0.3703 0.9289 -0.0000
vn 0.3805 0.9248 0.0000
vn 0.3530 0.9356 -0.0000
vn 0.2960 0.9552 -0.0000
vn 0.2718 0.9624 -0.0000
vn 0.9955 -0.0951 -0.0000
vn 0.9669 -0.2553 -0.0000
vn 0.9158 -0.4017 -0.0000
vn 0.8665 -0.4992 -0.0000
vn 0.7986 -0.6018 -0.0000
vn 0.7124 -0.7018 -0.0000
vn 0.6377 -0.7703 -0.0000
vn 0.5265 -0.8502 -0.0000
vn 0.4466 -0.8947 -0.0000
vn 0.0000 0.0000 -1.0000
vn 0.9979 -0.0648 -0.0000
vn 0.9998 -0.0199 -0.0000
vn 0.9955 0.0951 -0.0000
vn 0.9669 0.2553 -0.0000
vn 0.9158 0.4017 0.0000
vn 0.9158 0.4017 -0.0000
vn 0.8665 0.4992 0.0000
vn 0.7986 0.6018 -0.0000
vn 0.7124 0.7018 -0.0000
vn 0.6377 0.7703 -0.0000
vn 0.5265 0.8502 -0.0000
vn 0.4466 0.8947 -0.0000
vn -0.4466 0.8947 -0.0000
vn -0.5265 0.8502 -0.0000
vn -0.6377 0.7703 -0.0000
vn -0.7124 0.7018 -0.0000
vn -0.7986 0.6018 -0.0000
vn -0.8665 0.4992 -0.0000
vn -0.9158 0.4017 0.0000
vn -0.9158 0.4017 -0.0000
vn -0.9669 0.2553 0.0000
vn -0.9955 0.0951 0.0000
vn -0.9998 -0.0199 0.0000
vn -0.9979 -0.0648 -0.0000
vn -0.2918 -0.9565 -0.0000
vn -0.2791 -0.9603 0.0000
vn -0.2718 -0.9624 -0.0000
vn -0.2960 -0.9552 -0.0000
vn -0.3530 -0.9356 0.0000
vn -0.3805 -0.9248 -0.0000
vn -0.3703 -0.9289 -0.0000
vn 0.3703 -0.9289 -0.0000
vn 0.3805 -0.9248 -0.0000
vn 0.3530 -0.9356 -0.0000
vn 0.2960 -0.9552 0.0000
vn 0.2718 -0.9624 0.0000
vn 0.2791 -0.9603 0.0000
vn 0.2918 -0.9565 0.0000
vn -0.0000 0.0000 1.0000
vn -0.9998 0.0199 0.0000
vn -0.9669 -0.2553 -0.0000
vn 0.9979 0.0648 0.0000
vn -0.0000 1.0000 0.0000
# 84 vertex normals

vt 0.4064 0.0806 0.0000
vt 0.4273 0.0702 0.0000
vt 0.4482 0.0806 0.0000
vt 0.4913 0.1131 0.0000
vt 0.3633 0.1131 0.0000
vt 0.5394 0.1567 0.0000
vt 0.3153 0.1567 0.0000
vt 0.5898 0.2140 0.0000
vt 0.2648 0.2140 0.0000
vt 0.6187 0.2591 0.0000
vt 0.2359 0.2591 0.0000
vt 0.6476 0.3151 0.0000
vt 0.2071 0.3151 0.0000
vt 0.6672 0.3688 0.0000
vt 0.1874 0.3688 0.0000
vt 0.6786 0.4367 0.0000
vt 0.1761 0.4367 0.0000
vt 0.6816 0.5570 0.0000
vt 0.1730 0.5570 0.0000
vt 0.1786 0.6423 0.0000
vt 0.6760 0.6423 0.0000
vt 0.6421 0.6527 0.0000
vt 0.6049 0.6629 0.0000
vt 0.5495 0.6789 0.0000
vt 0.5082 0.6926 0.0000
vt 0.4688 0.7093 0.0000
vt 0.4273 0.7259 0.0000
vt 0.3858 0.7093 0.0000
vt 0.3464 0.6926 0.0000
vt 0.3051 0.6789 0.0000
vt 0.2497 0.6629 0.0000
vt 0.2126 0.6527 0.0000
vt 0.0704 0.1223 0.0000
vt 0.0704 0.0370 0.0000
vt 0.1089 0.0370 0.0000
vt 0.1089 0.1223 0.0000
vt 0.1582 0.8199 0.0000
vt 0.2072 0.8199 0.0000
vt 0.2072 0.7813 0.0000
vt 0.1582 0.7813 0.0000
vt 0.2445 0.8199 0.0000
vt 0.2445 0.7813 0.0000
vt 0.2993 0.8199 0.0000
vt 0.2993 0.7813 0.0000
vt 0.3393 0.8199 0.0000
vt 0.3393 0.7813 0.0000
vt 0.3781 0.8199 0.0000
vt 0.3781 0.7813 0.0000
vt 0.0704 0.2310 0.0000
vt 0.1089 0.2310 0.0000
vt 0.0704 0.2992 0.0000
vt 0.1089 0.2992 0.0000
vt 0.0704 0.3591 0.0000
vt 0.1089 0.3591 0.0000
vt 0.0704 0.4245 0.0000
vt 0.1089 0.4245 0.0000
vt 0.0704 0.4806 0.0000
vt 0.1089 0.4806 0.0000
vt 0.0704 0.5582 0.0000
vt 0.1089 0.5582 0.0000
vt 0.0704 0.6219 0.0000
vt 0.1089 0.6219 0.0000
vt 0.0704 0.6741 0.0000
vt 0.1089 0.6741 0.0000
vt 0.0704 0.7042 0.0000
vt 0.1089 0.7042 0.0000
vt 0.4281 0.8199 0.0000
vt 0.4281 0.7813 0.0000
vt 0.6490 0.8199 0.0000
vt 0.6980 0.8199 0.0000
vt 0.6980 0.7813 0.0000
vt 0.6490 0.7813 0.0000
vt 0.8037 0.0382 0.0000
vt 0.8037 0.1236 0.0000
vt 0.7651 0.1236 0.0000
vt 0.7651 0.0382 0.0000
vt 0.4781 0.8199 0.0000
vt 0.4781 0.7813 0.0000
vt 0.5169 0.8199 0.0000
vt 0.5169 0.7813 0.0000
vt 0.5569 0.8199 0.0000
vt 0.5569 0.7813 0.0000
vt 0.6118 0.8199 0.0000
vt 0.6118 0.7813 0.0000
vt 0.8037 0.2323 0.0000
vt 0.7651 0.2323 0.0000
vt 0.8037 0.3004 0.0000
vt 0.7651 0.3004 0.0000
vt 0.8037 0.3603 0.0000
vt 0.7651 0.3603 0.0000
vt 0.8037 0.4257 0.0000
vt 0.7651 0.4257 0.0000
vt 0.8037 0.4818 0.0000
vt 0.7651 0.4818 0.0000
vt 0.8037 0.5594 0.0000
vt 0.7651 0.5594 0.0000
vt 0.8037 0.6231 0.0000
vt 0.7651 0.6231 0.0000
vt 0.8037 0.6753 0.0000
vt 0.7651 0.6753 0.0000
vt 0.8037 0.7055 0.0000
vt 0.7651 0.7055 0.0000
vt 0.0407 0.8177 0.0000
vt 0.0472 0.8197 0.0000
vt 0.0521 0.8211 0.0000
vt 0.0403 0.7881 0.0000
vt 0.0646 0.8249 0.0000
vt 0.0697 0.8271 0.0000
vt 0.0763 0.8297 0.0000
vt 0.0880 0.8249 0.0000
vt 0.0829 0.8271 0.0000
vt 0.0593 0.8231 0.0000
vt 0.1005 0.8211 0.0000
vt 0.1054 0.8197 0.0000
vt 0.1119 0.8177 0.0000
vt 0.0933 0.8231 0.0000
vt 0.1128 0.8043 0.0000
vt 0.1123 0.7881 0.0000
vt 0.1080 0.7712 0.0000
vt 0.1108 0.7787 0.0000
vt 0.0660 0.7435 0.0000
vt 0.1041 0.7635 0.0000
vt 0.1001 0.7573 0.0000
vt 0.0866 0.7435 0.0000
vt 0.0932 0.7495 0.0000
vt 0.0806 0.7390 0.0000
vt 0.0763 0.7368 0.0000
vt 0.0720 0.7390 0.0000
vt 0.0595 0.7495 0.0000
vt 0.0526 0.7573 0.0000
vt 0.0446 0.7712 0.0000
vt 0.0486 0.7635 0.0000
vt 0.0419 0.7787 0.0000
vt 0.0399 0.8043 0.0000
vt 0.2326 0.6993 0.0000
vt 0.1931 0.6883 0.0000
vt 0.1997 0.6658 0.0000
vt 0.2390 0.6767 0.0000
vt 0.2908 0.7160 0.0000
vt 0.2977 0.6936 0.0000
vt 0.3332 0.7301 0.0000
vt 0.3415 0.7081 0.0000
vt 0.3743 0.7476 0.0000
vt 0.3833 0.7258 0.0000
vt 0.4273 0.7687 0.0000
vt 0.4273 0.7434 0.0000
vt 0.4803 0.7476 0.0000
vt 0.4713 0.7258 0.0000
vt 0.5214 0.7301 0.0000
vt 0.5131 0.7081 0.0000
vt 0.5638 0.7160 0.0000
vt 0.5569 0.6936 0.0000
vt 0.6220 0.6993 0.0000
vt 0.6156 0.6767 0.0000
vt 0.6615 0.6883 0.0000
vt 0.6549 0.6658 0.0000
vt 0.7134 0.6725 0.0000
vt 0.6910 0.6548 0.0000
vt 0.7204 0.5649 0.0000
vt 0.6968 0.5644 0.0000
vt 0.7171 0.4346 0.0000
vt 0.6936 0.4368 0.0000
vt 0.7044 0.3589 0.0000
vt 0.6816 0.3649 0.0000
vt 0.6823 0.2984 0.0000
vt 0.6608 0.3079 0.0000
vt 0.6506 0.2368 0.0000
vt 0.6302 0.2485 0.0000
vt 0.6184 0.1866 0.0000
vt 0.5996 0.2008 0.0000
vt 0.5628 0.1235 0.0000
vt 0.5461 0.1400 0.0000
vt 0.5101 0.0757 0.0000
vt 0.4951 0.0938 0.0000
vt 0.4619 0.0393 0.0000
vt 0.4495 0.0593 0.0000
vt 0.4273 0.0220 0.0000
vt 0.4273 0.0483 0.0000
vt 0.3927 0.0393 0.0000
vt 0.4052 0.0593 0.0000
vt 0.3445 0.0757 0.0000
vt 0.3595 0.0938 0.0000
vt 0.2918 0.1235 0.0000
vt 0.3085 0.1400 0.0000
vt 0.2362 0.1866 0.0000
vt 0.2550 0.2008 0.0000
vt 0.2041 0.2368 0.0000
vt 0.2244 0.2485 0.0000
vt 0.1723 0.2984 0.0000
vt 0.1938 0.3079 0.0000
vt 0.1502 0.3589 0.0000
vt 0.1730 0.3649 0.0000
vt 0.1375 0.4346 0.0000
vt 0.1610 0.4368 0.0000
vt 0.1343 0.5649 0.0000
vt 0.1578 0.5644 0.0000
vt 0.1412 0.6725 0.0000
vt 0.1636 0.6548 0.0000
vt 0.0273 0.6789 0.0000
vt 0.0273 0.6072 0.0000
vt 0.0507 0.6072 0.0000
vt 0.0507 0.6789 0.0000
vt 0.0273 0.5008 0.0000
vt 0.0507 0.5008 0.0000
vt 0.0273 0.4361 0.0000
vt 0.0507 0.4361 0.0000
vt 0.0273 0.3796 0.0000
vt 0.0507 0.3796 0.0000
vt 0.0273 0.3166 0.0000
vt 0.0507 0.3166 0.0000
vt 0.0273 0.2632 0.0000
vt 0.0507 0.2632 0.0000
vt 0.0273 0.1885 0.0000
vt 0.0507 0.1885 0.0000
vt 0.0273 0.1269 0.0000
vt 0.0507 0.1269 0.0000
vt 0.0273 0.0775 0.0000
vt 0.0507 0.0775 0.0000
vt 0.0273 0.0582 0.0000
vt 0.0507 0.0582 0.0000
vt 0.8280 0.6749 0.0000
vt 0.8280 0.6556 0.0000
vt 0.8514 0.6556 0.0000
vt 0.8514 0.6749 0.0000
vt 0.8280 0.6062 0.0000
vt 0.8514 0.6062 0.0000
vt 0.8280 0.5446 0.0000
vt 0.8514 0.5446 0.0000
vt 0.8280 0.4699 0.0000
vt 0.8514 0.4699 0.0000
vt 0.8280 0.4165 0.0000
vt 0.8514 0.4165 0.0000
vt 0.8280 0.3535 0.0000
vt 0.8514 0.3535 0.0000
vt 0.8280 0.2970 0.0000
vt 0.8514 0.2970 0.0000
vt 0.8280 0.2323 0.0000
vt 0.8514 0.2323 0.0000
vt 0.8280 0.1259 0.0000
vt 0.8514 0.1259 0.0000
vt 0.8280 0.0542 0.0000
vt 0.8514 0.0542 0.0000
vt 0.6842 0.8678 0.0000
vt 0.6503 0.8678 0.0000
vt 0.6503 0.8443 0.0000
vt 0.6842 0.8443 0.0000
vt 0.6131 0.8678 0.0000
vt 0.6131 0.8443 0.0000
vt 0.5577 0.8678 0.0000
vt 0.5577 0.8443 0.0000
vt 0.5164 0.8678 0.0000
vt 0.5164 0.8443 0.0000
vt 0.4770 0.8678 0.0000
vt 0.4770 0.8443 0.0000
vt 0.4355 0.8678 0.0000
vt 0.4355 0.8443 0.0000
vt 0.3940 0.8678 0.0000
vt 0.3940 0.8443 0.0000
vt 0.3546 0.8678 0.0000
vt 0.3546 0.8443 0.0000
vt 0.3133 0.8678 0.0000
vt 0.3133 0.8443 0.0000
vt 0.2579 0.8678 0.0000
vt 0.2579 0.8443 0.0000
vt 0.2208 0.8678 0.0000
vt 0.2208 0.8443 0.0000
vt 0.1868 0.8678 0.0000
vt 0.1868 0.8443 0.0000
vt 0.8442 0.7091 0.0000
vt 0.8533 0.7045 0.0000
vt 0.8624 0.7091 0.0000
vt 0.8811 0.7232 0.0000
vt 0.8254 0.7232 0.0000
vt 0.9020 0.7422 0.0000
vt 0.8045 0.7422 0.0000
vt 0.9240 0.7671 0.0000
vt 0.7826 0.7671 0.0000
vt 0.9365 0.7867 0.0000
vt 0.7700 0.7867 0.0000
vt 0.9491 0.8111 0.0000
vt 0.7575 0.8111 0.0000
vt 0.9576 0.8344 0.0000
vt 0.7489 0.8344 0.0000
vt 0.9625 0.8640 0.0000
vt 0.7440 0.8640 0.0000
vt 0.9639 0.9163 0.0000
vt 0.7427 0.9163 0.0000
vt 0.7451 0.9534 0.0000
vt 0.9615 0.9534 0.0000
vt 0.7224 0.9293 0.0000
vt 0.7224 0.9605 0.0000
vt 0.7060 0.9605 0.0000
vt 0.7060 0.9293 0.0000
vt 0.7224 0.8830 0.0000
vt 0.7060 0.8830 0.0000
vt 0.7224 0.8549 0.0000
vt 0.7060 0.8549 0.0000
vt 0.7224 0.8303 0.0000
vt 0.7060 0.8303 0.0000
vt 0.7224 0.8029 0.0000
vt 0.7060 0.8029 0.0000
vt 0.7224 0.7797 0.0000
vt 0.7060 0.7797 0.0000
vt 0.7224 0.7472 0.0000
vt 0.7060 0.7472 0.0000
vt 0.7224 0.7204 0.0000
vt 0.7060 0.7204 0.0000
vt 0.7224 0.6989 0.0000
vt 0.7060 0.6989 0.0000
vt 0.7224 0.6905 0.0000
vt 0.7060 0.6905 0.0000
vt 0.9764 0.6989 0.0000
vt 0.9764 0.6905 0.0000
vt 0.9928 0.6905 0.0000
vt 0.9928 0.6989 0.0000
vt 0.9764 0.7204 0.0000
vt 0.9928 0.7204 0.0000
vt 0.9764 0.7472 0.0000
vt 0.9928 0.7472 0.0000
vt 0.9764 0.7797 0.0000
vt 0.9928 0.7797 0.0000
vt 0.9764 0.8029 0.0000
vt 0.9928 0.8029 0.0000
vt 0.9764 0.8303 0.0000
vt 0.9928 0.8303 0.0000
vt 0.9764 0.8549 0.0000
vt 0.9928 0.8549 0.0000
vt 0.9764 0.8830 0.0000
vt 0.9928 0.8830 0.0000
vt 0.9764 0.9293 0.0000
vt 0.9928 0.9293 0.0000
vt 0.9764 0.9605 0.0000
vt 0.9928 0.9605 0.0000
vt 0.9622 0.9844 0.0000
vt 0.7458 0.9844 0.0000
vt 0.7458 0.9680 0.0000
vt 0.9622 0.9680 0.0000
# 337 texture coords

g Plane02
usemtl 07___Default
s 1
f 1/1/1 2/2/1 3/3/1 4/4/1 
f 5/5/1 1/1/1 4/4/1 6/6/1 
f 7/7/1 5/5/1 6/6/1 8/8/1 
f 9/9/1 7/7/1 8/8/1 10/10/2 
f 11/11/2 9/9/1 10/10/2 12/12/1 
f 13/13/1 11/11/2 12/12/1 14/14/1 
f 15/15/1 13/13/1 14/14/1 16/16/1 
f 17/17/1 15/15/1 16/16/1 18/18/3 
f 19/19/1 17/17/1 18/18/3 20/20/1 
f 21/21/1 22/22/1 23/23/1 24/24/3 
f 18/18/3 21/21/1 24/24/3 25/25/2 
f 18/18/3 25/25/2 26/26/2 27/27/3 
f 18/18/3 27/27/3 28/28/3 29/29/2 
f 18/18/3 29/29/2 30/30/1 20/20/1 
f 20/20/1 30/30/1 31/31/1 32/32/1 
s 8
f 33/33/4 34/34/5 35/35/5 36/36/4 
s 64
f 34/37/6 37/38/7 38/39/7 35/40/6 
f 37/38/7 39/41/8 40/42/8 38/39/7 
f 39/41/8 41/43/9 42/44/9 40/42/8 
f 41/43/9 43/45/10 44/46/10 42/44/9 
f 43/45/10 45/47/11 46/48/11 44/46/10 
s 8
f 47/49/12 33/33/4 36/36/4 48/50/12 
f 49/51/13 47/49/12 48/50/12 50/52/13 
f 51/53/14 49/51/13 50/52/13 52/54/14 
f 53/55/15 51/53/14 52/54/14 54/56/15 
f 55/57/16 53/55/15 54/56/15 56/58/16 
f 57/59/17 55/57/16 56/58/16 58/60/17 
f 59/61/18 57/59/17 58/60/17 60/62/18 
f 61/63/19 59/61/18 60/62/18 62/64/19 
f 63/65/20 61/63/19 62/64/19 64/66/20 
s 64
f 45/47/11 65/67/21 66/68/21 46/48/11 
s 32
f 67/69/22 68/70/23 69/71/23 70/72/22 
s 16
f 68/73/24 71/74/25 72/75/26 69/76/24 
s 32
f 65/67/27 73/77/28 74/78/28 66/68/27 
f 73/77/28 75/79/29 76/80/29 74/78/28 
f 75/79/29 77/81/30 78/82/30 76/80/29 
f 77/81/30 79/83/31 80/84/31 78/82/30 
f 79/83/31 67/69/22 70/72/22 80/84/31 
s 16
f 71/74/25 81/85/32 82/86/32 72/75/26 
f 81/85/32 83/87/33 84/88/33 82/86/32 
f 83/87/33 85/89/34 86/90/34 84/88/33 
f 85/89/34 87/91/35 88/92/35 86/90/34 
f 87/91/35 89/93/36 90/94/36 88/92/35 
f 89/93/36 91/95/37 92/96/37 90/94/36 
f 91/95/37 93/97/38 94/98/38 92/96/37 
f 93/97/38 95/99/39 96/100/39 94/98/38 
f 95/99/39 63/101/40 64/102/40 96/100/39 
s off
f 35/103/41 38/104/41 40/105/41 48/106/41 
f 44/107/41 46/108/41 66/109/41 76/110/41 
f 66/109/41 74/111/41 76/110/41 
f 42/112/41 44/107/41 76/110/41 40/105/41 
f 80/113/41 70/114/41 69/115/41 78/116/41 
f 69/115/41 72/117/41 82/118/41 86/119/41 
f 82/118/41 84/120/41 86/119/41 
f 78/116/41 69/115/41 86/119/41 76/110/41 
f 40/105/41 76/110/41 86/119/41 60/121/41 
f 86/119/41 88/122/41 90/123/41 94/124/41 
f 90/123/41 92/125/41 94/124/41 
f 94/124/41 96/126/41 64/127/41 60/121/41 
f 64/127/41 62/128/41 60/121/41 
f 86/119/41 94/124/41 60/121/41 
f 60/121/41 58/129/41 56/130/41 52/131/41 
f 56/130/41 54/132/41 52/131/41 
f 40/105/41 60/121/41 52/131/41 48/106/41 
f 52/131/41 50/133/41 48/106/41 
f 35/103/41 48/106/41 36/134/41 
f 39/135/1 37/136/1 97/137/1 98/138/1 
f 41/139/1 39/135/1 98/138/1 99/140/1 
f 43/141/1 41/139/1 99/140/1 100/142/1 
f 45/143/1 43/141/1 100/142/1 101/144/1 
f 65/145/1 45/143/1 101/144/1 102/146/1 
f 73/147/1 65/145/1 102/146/1 103/148/1 
f 75/149/1 73/147/1 103/148/1 104/150/1 
f 77/151/1 75/149/1 104/150/1 105/152/1 
f 79/153/1 77/151/1 105/152/1 106/154/1 
f 67/155/1 79/153/1 106/154/1 107/156/1 
f 68/157/1 67/155/1 107/156/1 108/158/1 
f 71/159/1 68/157/1 108/158/1 109/160/1 
f 81/161/1 71/159/1 109/160/1 110/162/1 
f 83/163/1 81/161/1 110/162/1 111/164/1 
f 85/165/1 83/163/1 111/164/1 112/166/1 
f 87/167/1 85/165/1 112/166/1 113/168/1 
f 89/169/1 87/167/1 113/168/1 114/170/1 
f 91/171/1 89/169/1 114/170/1 115/172/1 
f 93/173/1 91/171/1 115/172/1 116/174/1 
f 95/175/1 93/173/1 116/174/1 117/176/1 
f 63/177/1 95/175/1 117/176/1 118/178/1 
f 61/179/1 63/177/1 118/178/1 119/180/1 
f 59/181/1 61/179/1 119/180/1 120/182/1 
f 57/183/1 59/181/1 120/182/1 121/184/1 
f 55/185/1 57/183/1 121/184/1 122/186/1 
f 53/187/1 55/185/1 122/186/1 123/188/1 
f 51/189/1 53/187/1 123/188/1 124/190/1 
f 49/191/1 51/189/1 124/190/1 125/192/1 
f 47/193/1 49/191/1 125/192/1 126/194/1 
f 33/195/1 47/193/1 126/194/1 127/196/1 
f 34/197/1 33/195/1 127/196/1 128/198/1 
f 37/136/1 34/197/1 128/198/1 97/137/1 
s 128
f 128/199/42 127/200/43 19/201/43 20/202/42 
f 127/200/43 126/203/44 17/204/44 19/201/43 
f 126/203/44 125/205/45 15/206/45 17/204/44 
f 125/205/45 124/207/46 13/208/47 15/206/45 
f 124/207/46 123/209/48 11/210/48 13/208/47 
f 123/209/48 122/211/49 9/212/49 11/210/48 
f 122/211/49 121/213/50 7/214/50 9/212/49 
f 121/213/50 120/215/51 5/216/51 7/214/50 
f 120/215/51 119/217/52 1/218/52 5/216/51 
f 119/217/52 118/219/53 2/220/53 1/218/52 
s 256
f 118/221/54 117/222/55 3/223/55 2/224/54 
f 117/222/55 116/225/56 4/226/56 3/223/55 
f 116/225/56 115/227/57 6/228/57 4/226/56 
f 115/227/57 114/229/58 8/230/58 6/228/57 
f 114/229/58 113/231/59 10/232/59 8/230/58 
f 113/231/59 112/233/60 12/234/61 10/232/59 
f 112/233/60 111/235/62 14/236/62 12/234/61 
f 111/235/62 110/237/63 16/238/63 14/236/62 
f 110/237/63 109/239/64 18/240/64 16/238/63 
f 109/239/64 108/241/65 21/242/65 18/240/64 
s 512
f 108/243/66 107/244/67 22/245/67 21/246/66 
f 107/244/67 106/247/68 23/248/68 22/245/67 
f 106/247/68 105/249/69 24/250/69 23/248/68 
f 105/249/69 104/251/70 25/252/70 24/250/69 
f 104/251/70 103/253/71 26/254/71 25/252/70 
f 103/253/71 102/255/72 27/256/72 26/254/71 
s 2048
f 102/255/73 101/257/74 28/258/74 27/256/73 
f 101/257/74 100/259/75 29/260/75 28/258/74 
f 100/259/75 99/261/76 30/262/76 29/260/75 
f 99/261/76 98/263/77 31/264/77 30/262/76 
f 98/263/77 97/265/78 32/266/78 31/264/77 
f 97/265/78 128/267/79 20/268/79 32/266/78 
s 1
f 129/269/1 130/270/1 131/271/1 132/272/1 
f 133/273/1 129/269/1 132/272/1 134/274/1 
f 135/275/1 133/273/1 134/274/1 136/276/1 
f 137/277/1 135/275/1 136/276/1 138/278/1 
f 139/279/1 137/277/1 138/278/1 140/280/1 
f 141/281/1 139/279/1 140/280/1 142/282/1 
f 143/283/1 141/281/1 142/282/1 144/284/1 
f 145/285/1 143/283/1 144/284/1 146/286/80 
f 147/287/2 145/285/1 146/286/80 148/288/80 
f 148/288/80 146/286/80 149/289/80 
s 2
f 147/290/81 148/291/5 150/292/5 151/293/81 
f 145/294/12 147/290/81 151/293/81 152/295/12 
f 143/296/82 145/294/12 152/295/12 153/297/82 
f 141/298/14 143/296/82 153/297/82 154/299/14 
f 139/300/15 141/298/14 154/299/14 155/301/15 
f 137/302/16 139/300/15 155/301/15 156/303/16 
f 135/304/17 137/302/16 156/303/16 157/305/17 
f 133/306/18 135/304/17 157/305/17 158/307/18 
f 129/308/19 133/306/18 158/307/18 159/309/19 
f 130/310/20 129/308/19 159/309/19 160/311/20 
s 4
f 131/312/39 130/313/40 160/314/40 161/315/39 
f 132/316/38 131/312/39 161/315/39 162/317/38 
f 134/318/37 132/316/38 162/317/38 163/319/37 
f 136/320/36 134/318/37 163/319/37 164/321/36 
f 138/322/35 136/320/36 164/321/36 165/323/35 
f 140/324/34 138/322/35 165/323/35 166/325/34 
f 142/326/33 140/324/34 166/325/34 167/327/33 
f 144/328/32 142/326/33 167/327/33 168/329/32 
f 146/330/25 144/328/32 168/329/32 169/331/25 
f 149/332/83 146/330/25 169/331/25 170/333/83 
s off
f 148/334/84 149/335/84 170/336/84 150/337/84 
# 152 polygons - 9 triangles

